# xmcd
# 
# Track frame offsets:
#     150
#     28539
#     55855
#     76365
#     103634
#     130395
#     158752
#     185719
#     211390
# 
# Disc length: 3028
# 
# Revision: 5
# Processed by: cddbd v1.5.2PL0 Copyright (c) Steve Scherf et al.
# Submitted via: fre:ac v1.0.17
# 
DISCID=760bd209
DTITLE=Brian Hughes - Along the Way
DYEAR=2003
DGENRE=Jazz
TTITLE0=Along the Way
TTITLE1=Picture This
TTITLE2=Cruisin' Route 66
TTITLE3=Omaha Unbound
TTITLE4=Son y Lola
TTITLE5=Brighter Day
TTITLE6=Thinkin' of You
TTITLE7=Wherever You Are
TTITLE8=Endless Road
EXTD=
EXTT0=
EXTT1=
EXTT2=
EXTT3=
EXTT4=
EXTT5=
EXTT6=
EXTT7=
EXTT8=
PLAYORDER=
